<svg width="131" height="48" viewBox="0 0 131 48" fill="none" xmlns="http://www.w3.org/2000/svg">
<g clip-path="url(#clip0_30_59)">
<path d="M21.0042 20.6787C20.899 20.4304 20.7843 20.1877 20.6602 19.9504C20.9643 19.6287 21.1724 19.2228 21.2534 18.7764C21.3714 18.1271 21.2019 17.4671 20.7883 16.964C20.7663 16.9375 20.7435 16.9109 20.7201 16.8847C20.6969 16.8586 20.6728 16.8332 20.6482 16.8086C20.1912 16.3451 19.5519 16.1075 18.8938 16.1568C18.6383 16.176 18.3914 16.2374 18.1616 16.335C18.0988 16.3616 18.031 16.3126 18.0369 16.2445C18.0589 15.9956 18.041 15.7423 17.98 15.4932C17.8237 14.8527 17.3996 14.3184 16.8174 14.0273C16.7863 14.012 16.7546 13.997 16.7225 13.9829C16.6906 13.9688 16.6583 13.9551 16.6263 13.9426C16.0202 13.7051 15.3394 13.7478 14.7583 14.0602C14.5327 14.1814 14.3319 14.338 14.1619 14.5209C14.1153 14.5707 14.0335 14.5537 14.0114 14.4889C13.9305 14.2526 13.8107 14.0282 13.654 13.8256C13.3768 13.467 13.0043 13.2054 12.587 13.0678C12.3976 13.0051 12.1989 12.9681 11.9957 12.9591C11.9607 12.9574 11.9257 12.9565 11.8909 12.9565C11.8559 12.9565 11.8211 12.9574 11.7861 12.9591C11.1357 12.9885 10.5309 13.3042 10.1277 13.826C9.97146 14.0279 9.85177 14.2509 9.77081 14.486L9.7704 14.4876C9.7479 14.5528 9.66604 14.5707 9.61896 14.5204C9.44889 14.3381 9.24852 14.1818 9.02289 14.0606C8.44182 13.7481 7.76102 13.7051 7.1551 13.9431C7.12264 13.956 7.09064 13.9692 7.05864 13.9833C7.02664 13.9975 6.99509 14.0125 6.96383 14.0282C6.38157 14.3194 5.95797 14.8535 5.80124 15.4941C5.74051 15.7429 5.7222 15.9962 5.74468 16.2451C5.75093 16.3133 5.68321 16.3622 5.61995 16.3357C5.39014 16.2377 5.14322 16.1766 4.88766 16.1576C4.22933 16.1081 3.59051 16.3458 3.13327 16.8094C3.10871 16.8339 3.08505 16.8593 3.06138 16.8858C3.03816 16.9119 3.01524 16.938 2.99322 16.9651C2.57959 17.4677 2.41006 18.1281 2.52809 18.777C2.60906 19.2231 2.81729 19.629 3.12151 19.9509C2.99738 20.188 2.88262 20.4308 2.77754 20.6788C2.26166 21.8964 2 23.1895 2 24.522C2 25.8546 2.26166 27.1477 2.77754 28.3654C3.27571 29.5412 3.98881 30.597 4.89688 31.5034C5.80496 32.4099 6.86262 33.1217 8.04055 33.619C9.26047 34.1341 10.5559 34.3951 11.8907 34.3951C13.2256 34.3951 14.5211 34.1339 15.741 33.619C16.9189 33.1217 17.9765 32.4099 18.8846 31.5034C19.7927 30.597 20.5058 29.5412 21.004 28.3654C21.52 27.1477 21.7815 25.8545 21.7815 24.522C21.7818 23.1895 21.5201 21.8964 21.0042 20.6787ZM19.5101 27.7345C19.0936 28.7174 18.4974 29.6 17.7376 30.3584C17.0686 31.0262 16.3028 31.5675 15.4572 31.971C15.3066 31.3877 15.0719 30.8931 14.7897 30.413C15.4204 30.1044 15.9919 29.7015 16.4932 29.2097C17.0996 28.615 17.5793 27.9167 17.9191 27.1342C18.2589 26.3516 18.4414 25.5246 18.4615 24.6764C18.468 24.4039 18.4573 24.133 18.4301 23.8642C18.4301 23.8529 18.4287 23.8414 18.4263 23.83C18.4246 23.8215 18.4222 23.813 18.4189 23.8048C18.386 23.7215 18.2916 23.6807 18.2082 23.7135C18.2068 23.7141 18.2055 23.7147 18.2041 23.7153C18.194 23.7196 18.1845 23.7248 18.1757 23.7309C17.6073 24.0474 17.086 24.4368 16.6188 24.8948C15.9418 25.5589 15.4061 26.3385 15.0268 27.2119C14.6642 28.047 14.4623 28.9276 14.4255 29.8313C14.3027 29.6437 14.175 29.4538 14.0443 29.2571C13.4134 28.3062 12.7685 27.3343 12.3907 25.9832H12.5282C12.6425 25.9832 12.7534 25.9304 12.8154 25.8344C12.8907 25.7185 12.886 25.5728 12.807 25.4631L12.6465 25.2404C12.5744 25.1404 12.5415 25.0144 12.5663 24.8932C12.5881 24.7894 12.6449 24.7005 12.7286 24.6385L19.2973 20.8479C19.3727 20.9992 19.4435 21.1529 19.5098 21.3094C19.9406 22.3264 20.1591 23.4073 20.1591 24.5219C20.1591 25.6365 19.941 26.7175 19.5101 27.7345ZM11.8909 32.7758C10.7743 32.7758 9.69151 32.5577 8.67267 32.1276C7.68809 31.7119 6.80383 31.1167 6.04415 30.3584C5.28446 29.6 4.68821 28.7174 4.27175 27.7345C3.84086 26.7175 3.62236 25.6367 3.62236 24.522C3.62236 23.4075 3.84086 22.3266 4.27175 21.3096C4.33799 21.1533 4.40869 20.9996 4.484 20.8486L9.16922 23.552L10.2577 24.1802L11.005 24.6113C11.1165 24.6757 11.1905 24.7825 11.2121 24.9104C11.2315 25.0259 11.1979 25.1446 11.1293 25.2398L10.9755 25.4533C10.9086 25.5459 10.887 25.6668 10.9282 25.7731C10.9781 25.9014 11.0993 25.9833 11.2345 25.9833H11.5373C11.9411 27.5807 12.6793 28.6934 13.3562 29.7134C13.4303 29.8251 13.503 29.9334 13.5738 30.0397C12.9496 29.4478 12.2312 28.9738 11.4349 28.6292C10.5599 28.2507 9.63505 28.0475 8.68607 28.0248C8.03146 28.0094 7.38445 28.081 6.75293 28.2379C6.74236 28.2395 6.73179 28.2422 6.72137 28.2459C6.72003 28.2464 6.71854 28.2468 6.7172 28.2473C6.63385 28.2801 6.59292 28.3743 6.62582 28.4577C6.62924 28.4661 6.63326 28.474 6.63787 28.4815C6.64368 28.4912 6.65037 28.5002 6.65781 28.5082C6.82213 28.7232 7.00015 28.9283 7.1917 29.1228C7.78751 29.7281 8.48706 30.2069 9.27103 30.5462C10.055 30.8854 10.8832 31.0675 11.7331 31.0876C12.5124 31.106 13.2802 30.9865 14.0196 30.7323C14.3151 31.2217 14.5493 31.7066 14.6848 32.2926C13.7915 32.6135 12.8537 32.7758 11.8909 32.7758ZM4.39395 18.18C4.40884 18.1617 4.42476 18.1439 4.44054 18.1261C4.44292 18.1234 4.44545 18.1209 4.44783 18.1182C4.45884 18.1061 4.47016 18.0941 4.48177 18.0822C4.4843 18.0797 4.48668 18.077 4.48921 18.0745C4.76814 17.7916 5.15006 17.6346 5.55029 17.6346C5.58854 17.6346 5.6268 17.6358 5.66534 17.6387C5.75658 17.6456 5.84619 17.6603 5.93326 17.6823C6.21695 17.7539 6.47474 17.903 6.67791 18.1145C6.72733 18.1659 6.77361 18.2211 6.81618 18.2797L10.0423 22.7172C10.1443 22.8576 10.1212 22.9977 10.0572 23.0978C10.0459 23.1154 10.0334 23.1319 10.02 23.1467C9.93025 23.2464 9.77143 23.3162 9.59474 23.214L4.84181 20.4711C4.80207 20.4483 4.76367 20.4236 4.72646 20.3976C4.48504 20.2288 4.2978 19.9968 4.18364 19.7283C4.13839 19.6221 4.10476 19.51 4.08362 19.394C4.06531 19.2931 4.05728 19.1918 4.05921 19.0915C4.0659 18.7591 4.1817 18.4381 4.39395 18.18ZM10.451 22.4206L7.2249 17.9827C7.17995 17.9209 7.14006 17.8562 7.10508 17.7895C6.96621 17.5249 6.90623 17.2264 6.93198 16.9285C6.93883 16.8491 6.95163 16.7696 6.97083 16.6908C7.07591 16.2606 7.3599 15.902 7.74926 15.7073C7.7704 15.6969 7.79213 15.6865 7.81372 15.6769C7.83529 15.6674 7.85732 15.6582 7.87935 15.6495C8.0523 15.5817 8.23433 15.5481 8.41636 15.5481C8.66151 15.5481 8.90721 15.6092 9.13126 15.7297C9.1893 15.761 9.24494 15.7958 9.29794 15.8335C9.54221 16.0074 9.73064 16.2464 9.84211 16.5231C9.87573 16.6067 9.90271 16.6936 9.92176 16.7832L11.0626 22.1487C11.0653 22.1612 11.0672 22.1734 11.0687 22.1852C11.0904 22.364 10.9813 22.4811 10.8669 22.5321C10.7444 22.5862 10.5711 22.5856 10.451 22.4206ZM10.7087 15.3948C10.9797 15.0446 11.3848 14.8325 11.8196 14.8128C11.8667 14.8108 11.9148 14.8108 11.9618 14.8128C12.397 14.8323 12.8018 15.0446 13.0728 15.3948C13.1113 15.4444 13.1463 15.4958 13.1781 15.549C13.3334 15.808 13.4098 16.1048 13.3997 16.4048C13.3966 16.496 13.3855 16.5876 13.3662 16.6783L12.2254 22.0438C12.22 22.0688 12.213 22.0916 12.2044 22.1128C12.2021 22.1181 12.1996 22.1228 12.1973 22.1279C12.1951 22.1328 12.1929 22.138 12.1905 22.1426C12.1249 22.2673 11.9999 22.3142 11.8912 22.3142C11.7573 22.3142 11.5989 22.2432 11.5566 22.0434L10.4155 16.6779C10.3961 16.5873 10.3852 16.4959 10.3821 16.4048C10.372 16.1048 10.4485 15.808 10.6036 15.549C10.635 15.4966 10.6695 15.4456 10.7073 15.3966L10.7087 15.3948ZM12.7195 22.1493L13.8604 16.7838C13.8795 16.6939 13.9063 16.6069 13.9401 16.5231C14.0517 16.2464 14.2403 16.0074 14.4846 15.8337C14.5376 15.7961 14.5929 15.7615 14.6509 15.7303C14.8748 15.6098 15.1209 15.5487 15.3661 15.5487C15.5485 15.5487 15.7302 15.5823 15.903 15.6501C15.9248 15.6588 15.9468 15.6679 15.9684 15.6774C15.9899 15.6869 16.0116 15.6969 16.0328 15.7077C16.4222 15.902 16.7058 16.2606 16.8108 16.691C16.8245 16.7468 16.8351 16.8031 16.8425 16.8595C16.8455 16.8825 16.8479 16.9055 16.8498 16.9285C16.8754 17.2264 16.8154 17.5248 16.6766 17.7894C16.6416 17.8559 16.6018 17.9204 16.557 17.9821L13.331 22.4197C13.2108 22.5851 13.0374 22.5856 12.9149 22.531C12.8196 22.4887 12.7281 22.4006 12.7125 22.2692C12.7083 22.2325 12.7101 22.1925 12.7195 22.1493ZM19.0555 20.3978C19.0183 20.4237 18.9799 20.4483 18.9403 20.4713L14.187 23.214C14.0101 23.3162 13.8513 23.246 13.7615 23.1467C13.6721 23.047 13.6189 22.8821 13.7391 22.7167L16.9652 18.2792C16.999 18.2327 17.035 18.1885 17.0732 18.1464C17.0832 18.1354 17.0933 18.1247 17.1035 18.1142C17.3066 17.903 17.5645 17.7537 17.8482 17.6823C17.9352 17.6603 18.0246 17.6456 18.1155 17.6387C18.1541 17.6358 18.1924 17.6346 18.2306 17.6346C18.6313 17.6346 19.0129 17.7916 19.2917 18.0749C19.3084 18.0916 19.3246 18.109 19.3404 18.1265C19.3566 18.1443 19.3719 18.1623 19.387 18.1806C19.6638 18.5162 19.7772 18.959 19.6979 19.3947C19.6769 19.5106 19.6431 19.6225 19.598 19.7286C19.5934 19.7394 19.5888 19.7501 19.5838 19.761C19.469 20.0155 19.2873 20.2358 19.0555 20.3978Z" fill="currentColor"/>
<path d="M32.7166 21.0907C34.3947 21.0907 34.997 21.725 34.997 23.1032C34.997 24.4814 34.3517 25.1376 32.7597 25.1376H30.7159V21.0907H32.7166ZM33.1039 27.6971C36.2878 27.6971 38.0519 25.6627 38.0519 23.1032C38.0519 20.0188 36.4169 18.4219 32.9963 18.4219H27.618V31.5471H30.7159V27.6971H33.1039Z" fill="currentColor"/>
<path d="M42.3288 17.5031H39.4031V31.5471H42.3288V17.5031Z" fill="currentColor"/>
<path d="M48.1445 29.4908C47.0258 29.4908 46.6601 28.9658 46.6601 28.3095C46.6601 27.5876 47.2625 27.1501 48.209 27.1501H50.3173V27.5658C50.3173 28.6814 49.4783 29.4908 48.1445 29.4908ZM50.4679 31.5471H53.2216V24.9626C53.2216 22.3594 51.9524 20.9156 48.8545 20.9156C46.0362 20.9156 44.6163 22.25 44.2722 24.1313L47.0258 24.7657C47.2195 23.7594 47.7787 23.2782 48.7468 23.2782C49.8656 23.2782 50.3173 23.8907 50.3173 24.9626V25.6845H47.6497C44.9605 25.6845 43.8849 26.9751 43.8849 28.8345C43.8849 30.8689 45.1542 31.7659 46.8753 31.7659C48.6178 31.7659 49.6935 30.7158 50.2098 29.0752H50.4679V31.5471Z" fill="currentColor"/>
<path d="M58.1896 25.772C58.1896 24.4813 58.9856 23.5845 60.2334 23.5845C61.309 23.5845 61.7823 24.3064 61.7823 25.3564V31.5471H64.7081V24.5251C64.7081 22.272 63.7185 20.8938 61.7608 20.8938C60.1688 20.8938 58.921 21.9438 58.3187 23.9564H58.1251V21.1782H55.2638V31.5471H58.1896V25.772Z" fill="currentColor"/>
<path d="M67.2306 28.2877C67.2306 30.2565 68.2202 31.8534 70.5866 31.8534C71.7051 31.8534 72.2214 31.7003 72.9958 31.4597L72.6735 28.7909C72.2863 28.9221 71.7914 29.0534 71.3393 29.0534C70.4575 29.0534 70.1564 28.6377 70.1564 27.8064V23.5407H72.8453V21.1782H70.1564V17.4847H67.2306V21.1782H65.9828V23.5407H67.2306V28.2877Z" fill="currentColor"/>
<path d="M77.3918 25.7719C77.3918 24.4813 78.1876 23.5844 79.4355 23.5844C80.4895 23.5844 80.9844 24.3063 80.9844 25.3564V31.5471H83.9102V24.5251C83.9102 22.2719 82.9425 20.8938 81.0058 20.8938C79.3492 20.8938 78.1662 21.9657 77.5636 23.9563H77.3918V17.5031H74.4659V31.5471H77.3918V25.7719Z" fill="currentColor"/>
<path d="M90.6709 31.8534C93.9191 31.8534 95.8986 29.7752 95.8986 26.3627C95.8986 22.9063 93.8549 20.8938 90.6709 20.8938C87.422 20.8938 85.4004 22.9063 85.4004 26.3627C85.4004 29.7752 87.3578 31.8534 90.6709 31.8534ZM90.6495 23.3876C92.2625 23.3876 92.9728 24.4595 92.9728 26.3408C92.9728 28.222 92.2846 29.3158 90.6495 29.3158C88.993 29.3158 88.3262 28.222 88.3262 26.3408C88.3262 24.4595 89.0358 23.3876 90.6495 23.3876Z" fill="currentColor"/>
<path d="M104.011 31.5472H106.872V21.1782H103.924V26.9533C103.924 28.2659 103.15 29.1627 101.903 29.1627C100.827 29.1627 100.353 28.4409 100.353 27.369V21.1782H97.4281V28.2002C97.4281 30.4534 98.4172 31.8535 100.353 31.8535C101.967 31.8535 103.215 30.8034 103.795 28.7909H104.011V31.5472Z" fill="currentColor"/>
<path d="M113.115 31.8534C116.192 31.8534 117.504 30.6283 117.504 28.6158C117.504 26.997 116.729 25.9251 113.545 25.247C111.717 24.8751 111.437 24.4595 111.437 23.8907C111.437 23.2782 111.91 22.9501 112.879 22.9501C113.933 22.9501 114.406 23.3657 114.643 24.4376L117.246 23.8907C116.88 22.075 115.912 20.8938 112.943 20.8938C110.061 20.8938 108.662 22.075 108.662 24.0657C108.662 25.8376 109.608 26.7782 112.405 27.3908C114.277 27.7627 114.686 28.1127 114.686 28.7471C114.664 29.4252 114.169 29.7534 113.18 29.7534C111.91 29.7534 111.222 29.1627 110.964 28.0252L108.339 28.5721C108.619 30.4534 109.673 31.8534 113.115 31.8534Z" fill="currentColor"/>
<path d="M123.673 23.1251C124.985 23.1251 125.652 23.9126 125.695 25.5314H121.435C121.586 23.8251 122.339 23.1251 123.673 23.1251ZM123.716 31.8315C126.62 31.8315 127.803 30.4753 128.255 28.6815L125.803 28.0033C125.545 28.7909 125.114 29.4471 123.737 29.4471C122.339 29.4471 121.586 28.7033 121.414 27.0408H128.319C128.363 26.4939 128.384 26.0783 128.384 25.6408C128.384 22.7751 126.9 20.8938 123.759 20.8938C120.446 20.8938 118.531 22.9939 118.531 26.5814C118.531 30.1034 120.639 31.8315 123.716 31.8315Z" fill="currentColor"/>
</g>
<defs>
<clipPath id="clip0_30_59">
<rect width="127" height="22.087" fill="currentColor" transform="translate(2 12.9565)"/>
</clipPath>
</defs>
</svg>
